<svg id="cart" xmlns="http://www.w3.org/2000/svg" xmlns:xlink="http://www.w3.org/1999/xlink" width="24.467" height="22.22" viewBox="0 0 24.467 22.22">
  <defs>
    <clipPath id="clip-path">
      <rect id="Rectangle_2669" data-name="Rectangle 2669" width="24.467" height="22.22" fill="#239b8c"/>
    </clipPath>
  </defs>
  <g id="Group_18" data-name="Group 18" clip-path="url(#clip-path)">
    <path id="Path_19" data-name="Path 19" d="M6.739,3.923h.513q7.787,0,15.573,0a2.522,2.522,0,0,1,.8.1,1.145,1.145,0,0,1,.741,1.595c-.543,1.418-1.1,2.83-1.652,4.245q-.634,1.628-1.266,3.255a.857.857,0,0,1-.982.667H9.364c.129.49.229.948.382,1.388.03.088.262.148.4.148,2.038.009,4.077.006,6.115.006,1.644,0,3.289-.008,4.933.008a1.888,1.888,0,0,1,.818.185.649.649,0,0,1,.011,1.214,1.684,1.684,0,0,1-.774.205c-4.172.013-8.344.005-12.515.017-.292,0-.332-.157-.385-.357L5.88,7.249c-.446-1.691-.9-3.381-1.332-5.075-.073-.284-.185-.393-.489-.394-.992,0-1.984-.021-2.974-.079a1.532,1.532,0,0,1-.8-.314A.75.75,0,0,1,.057.5.757.757,0,0,1,.827,0C1.561,0,2.294,0,3.028,0L4.7.011c.733,0,1,.207,1.192.9q.393,1.432.788,2.863a1.567,1.567,0,0,0,.059.145" transform="translate(0 0)" fill="#239b8c"/>
    <path id="Path_20" data-name="Path 20" d="M115.291,222.367a2.126,2.126,0,1,1-4.253-.027,2.126,2.126,0,1,1,4.253.027" transform="translate(-101.984 -202.261)" fill="#239b8c"/>
    <path id="Path_21" data-name="Path 21" d="M208.339,224.486a2.13,2.13,0,1,1,2.161-2.126,2.135,2.135,0,0,1-2.161,2.126" transform="translate(-189.402 -202.267)" fill="#239b8c"/>
  </g>
</svg>
