<svg id="heart" xmlns="http://www.w3.org/2000/svg" xmlns:xlink="http://www.w3.org/1999/xlink" width="21.153" height="18.375" viewBox="0 0 21.153 18.375">
  <defs>
    <clipPath id="clip-path">
      <rect id="Rectangle_2668" data-name="Rectangle 2668" width="21.153" height="18.375" fill="#239b8c"/>
    </clipPath>
  </defs>
  <g id="Group_16" data-name="Group 16" clip-path="url(#clip-path)">
    <path id="Path_18" data-name="Path 18" d="M10.631,2.581C12.772-.026,15.37-.672,18.086.706a5.943,5.943,0,0,1,2.966,6.523,8.409,8.409,0,0,1-2.884,5.207c-2.268,1.932-4.623,3.76-6.929,5.648a.908.908,0,0,1-1.332,0c-2.327-1.908-4.741-3.717-6.993-5.709A8.023,8.023,0,0,1,.122,4.747,5.313,5.313,0,0,1,4.382.221a5.355,5.355,0,0,1,5.7,1.847c.137.157.266.32.4.477.016.018.056.015.144.037" transform="translate(0 0)" fill="#239b8c"/>
  </g>
</svg>
