<svg id="profile" xmlns="http://www.w3.org/2000/svg" xmlns:xlink="http://www.w3.org/1999/xlink" width="18.391" height="18.375" viewBox="0 0 18.391 18.375">
  <defs>
    <clipPath id="clip-path">
      <rect id="Rectangle_2720" data-name="Rectangle 2720" width="18.391" height="18.375" fill="#239b8c"/>
    </clipPath>
  </defs>
  <g id="Group_72" data-name="Group 72" clip-path="url(#clip-path)">
    <path id="Path_32" data-name="Path 32" d="M0,143.7a8.811,8.811,0,0,1,.6-3.242,9.18,9.18,0,0,1,3.571-4.427c.112-.074.219-.156.33-.231a1.719,1.719,0,0,1,2.081-.076,5.221,5.221,0,0,0,4.783.225,6.181,6.181,0,0,0,1.041-.533.577.577,0,0,1,.64-.036,9.109,9.109,0,0,1,5.124,6.355,12.668,12.668,0,0,1,.209,1.419,4.657,4.657,0,0,1,0,.546Z" transform="translate(0 -125.321)" fill="#239b8c"/>
    <path id="Path_33" data-name="Path 33" d="M61.207,10.1a5.052,5.052,0,1,1,5.062-5.03,5.013,5.013,0,0,1-5.062,5.03" transform="translate(-52.014 0)" fill="#239b8c"/>
  </g>
</svg>
