<svg xmlns="http://www.w3.org/2000/svg" xmlns:xlink="http://www.w3.org/1999/xlink" width="28.951" height="32.294" viewBox="0 0 28.951 32.294">
  <defs>
    <clipPath id="clip-path">
      <rect id="Rectangle_2765" data-name="Rectangle 2765" width="28.951" height="32.294" fill="#22988a"/>
    </clipPath>
  </defs>
  <g id="s1" transform="translate(-928.77 -1548.503)">
    <g id="s1ss" transform="translate(928.77 1548.503)">
      <g id="Group_2705" data-name="Group 2705" clip-path="url(#clip-path)">
        <path id="Path_11808" data-name="Path 11808" d="M48.051,20.661c-.5-.077-1.126-.149-1.739-.271a2.426,2.426,0,0,0-2.361.717c-.39.4-.808.771-1.224,1.144-.66.593-1.064.611-1.737.055a5.456,5.456,0,0,1-.752-.748,3.182,3.182,0,0,0-3.355-1.152,10.008,10.008,0,0,1-1.393.247c-.822.052-1.105-.181-1.272-.978-.118-.562-.217-1.13-.292-1.7A1.923,1.923,0,0,0,32.69,16.32c-.562-.234-1.115-.493-1.653-.777-.792-.419-.927-.921-.435-1.65a4.137,4.137,0,0,0-.025-5.058c-.558-.814-.39-1.3.544-1.606a3.927,3.927,0,0,0,2.963-2.9,10.591,10.591,0,0,0,.147-1.309.907.907,0,0,1,1.2-.923.323.323,0,0,1,.049.012A4.079,4.079,0,0,0,40.352.628c.725-.855,1.181-.815,1.976-.01.178.181.343.374.521.555a3.838,3.838,0,0,0,3.85,1.12,11.252,11.252,0,0,1,1.194-.219.8.8,0,0,1,.956.7,9.6,9.6,0,0,1,.185,1.15,3.127,3.127,0,0,0,2.389,2.994l.049.015c1.433.475,1.622.928.955,2.276-.232.47-.456.944-.681,1.418a1.461,1.461,0,0,0,.1,1.5c.293.455.61.895.906,1.347a5.764,5.764,0,0,1,.491.827.785.785,0,0,1-.5,1.175c-.251.1-.51.181-.76.284a3.836,3.836,0,0,0-2.561,3.723c-.022.912-.339,1.2-1.373,1.183" transform="translate(-27.184 0)" fill="#22988a"/>
        <path id="Path_11809" data-name="Path 11809" d="M166.252,199.4l-4.03-8.185c.532-.478,1.019-.976,1.573-1.382a1.431,1.431,0,0,1,.859-.12c.538.033,1.071.171,1.608.18a3.059,3.059,0,0,0,3.215-2.206c.19-.516.31-1.058.49-1.685l4.727,9.3c-1.006-.126-1.9-.234-2.8-.353-.6-.08-1.2-.189-1.8-.263a1.564,1.564,0,0,0-1.693.922c-.675,1.247-1.393,2.47-2.146,3.8" transform="translate(-145.743 -167.105)" fill="#22988a"/>
        <path id="Path_11810" data-name="Path 11810" d="M8.445,197.7c-.75-1.371-1.449-2.624-2.125-3.89a1.515,1.515,0,0,0-1.79-.983c-1.321.162-2.638.359-3.957.539-.163.022-.329.03-.573.052L4.67,184.1c.09.5.16.868.225,1.24a3.239,3.239,0,0,0,4.269,2.691,2.957,2.957,0,0,1,3.17,1.393.541.541,0,0,1-.044.409q-1.314,2.711-2.646,5.414l-1.2,2.445" transform="translate(0 -165.403)" fill="#22988a"/>
      </g>
    </g>
    <path id="Path_11802" data-name="Path 11802" d="M148.27,102.356h.031v8.094h2.31V100.235h-1.965l-2.719,1.257.393,1.792Z" transform="translate(790.309 1454.027)" fill="#fff"/>
    <path id="Path_11803" data-name="Path 11803" d="M210.053,109.151c2.593,0,3.866-2.184,3.866-5.328,0-2.8-1.084-5.233-3.8-5.233-2.64,0-3.882,2.326-3.882,5.3.016,2.892,1.179,5.265,3.819,5.265m.031-8.754c.959,0,1.446,1.195,1.446,3.458,0,2.326-.5,3.489-1.431,3.489-.911,0-1.477-1.116-1.477-3.457,0-2.389.6-3.489,1.461-3.489" transform="translate(736.336 1455.499)" fill="#fff"/>
  </g>
</svg>
