<svg id="s2" xmlns="http://www.w3.org/2000/svg" xmlns:xlink="http://www.w3.org/1999/xlink" width="33.508" height="35.824" viewBox="0 0 33.508 35.824">
  <defs>
    <clipPath id="clip-path">
      <rect id="Rectangle_2760" data-name="Rectangle 2760" width="33.508" height="35.824" fill="none" stroke="#22988a" stroke-width="1"/>
    </clipPath>
  </defs>
  <g id="Group_2690" data-name="Group 2690" transform="translate(0 0)" clip-path="url(#clip-path)">
    <path id="Path_11745" data-name="Path 11745" d="M32.077,27.771c-.657,1.112-4.676-.025-9.024-2.527A26.5,26.5,0,0,1,17.9,21.477a3.042,3.042,0,0,1-3.033,0,26.477,26.477,0,0,1-5.157,3.767c-4.348,2.5-8.366,3.639-9.024,2.527-.631-1.112,2.351-4.044,6.7-6.547a28.2,28.2,0,0,1,5.84-2.578,3.114,3.114,0,0,1,1.516-2.6,26.457,26.457,0,0,1-.682-6.394C14.055,4.644,15.091.6,16.38.6s2.325,4.044,2.325,9.049a26.457,26.457,0,0,1-.682,6.394,3.117,3.117,0,0,1,1.517,2.6,28.2,28.2,0,0,1,5.839,2.578C29.726,23.727,32.709,26.659,32.077,27.771Z" transform="translate(-0.163 -0.163)" fill="#22988a"/>
    <path id="Path_11746" data-name="Path 11746" d="M10.439,4.722a16.715,16.715,0,0,1,7.4-2.316" transform="translate(-2.838 -0.654)" fill="none" stroke="#22988a" stroke-linecap="round" stroke-miterlimit="10" stroke-width="1.2"/>
    <path id="Path_11747" data-name="Path 11747" d="M5.285,9.235a16.86,16.86,0,0,1,1.5-1.443" transform="translate(-1.437 -2.118)" fill="none" stroke="#22988a" stroke-linecap="round" stroke-miterlimit="10" stroke-width="1.2"/>
    <path id="Path_11748" data-name="Path 11748" d="M2.243,13.633q.232-.405.486-.8" transform="translate(-0.61 -3.49)" fill="none" stroke="#22988a" stroke-linecap="round" stroke-miterlimit="10" stroke-width="1.2"/>
    <path id="Path_11749" data-name="Path 11749" d="M10.075,10.341a13.454,13.454,0,0,1,6.834-3.18" transform="translate(-2.739 -1.947)" fill="none" stroke="#22988a" stroke-linecap="round" stroke-miterlimit="10" stroke-width="1.2"/>
    <path id="Path_11750" data-name="Path 11750" d="M6.235,15.636a13.231,13.231,0,0,1,1.051-1.568" transform="translate(-1.695 -3.825)" fill="none" stroke="#22988a" stroke-linecap="round" stroke-miterlimit="10" stroke-width="1.2"/>
    <path id="Path_11751" data-name="Path 11751" d="M10.49,17.958q-.137.211-.263.429" transform="translate(-2.78 -4.882)" fill="none" stroke="#22988a" stroke-linecap="round" stroke-miterlimit="10" stroke-width="1.2"/>
    <path id="Path_11752" data-name="Path 11752" d="M17.106,11.986a10.061,10.061,0,0,0-5.376,3.239" transform="translate(-3.189 -3.259)" fill="none" stroke="#22988a" stroke-linecap="round" stroke-miterlimit="10" stroke-width="1.2"/>
    <path id="Path_11753" data-name="Path 11753" d="M17.868,16.777a6.543,6.543,0,0,0-3.614,2.958" transform="translate(-3.875 -4.561)" fill="none" stroke="#22988a" stroke-linecap="round" stroke-miterlimit="10" stroke-width="1.2"/>
    <path id="Path_11754" data-name="Path 11754" d="M8.832,43.712a16.727,16.727,0,0,1-5.708-5.253" transform="translate(-0.849 -10.456)" fill="none" stroke="#22988a" stroke-linecap="round" stroke-miterlimit="10" stroke-width="1.2"/>
    <path id="Path_11755" data-name="Path 11755" d="M16.419,47.826a16.706,16.706,0,0,1-2-.581" transform="translate(-3.92 -12.845)" fill="none" stroke="#22988a" stroke-linecap="round" stroke-miterlimit="10" stroke-width="1.2"/>
    <path id="Path_11756" data-name="Path 11756" d="M21.939,48.592q-.469,0-.932-.023" transform="translate(-5.711 -13.205)" fill="none" stroke="#22988a" stroke-linecap="round" stroke-miterlimit="10" stroke-width="1.2"/>
    <path id="Path_11757" data-name="Path 11757" d="M13.987,41.4a13.45,13.45,0,0,1-6.172-4.329" transform="translate(-2.125 -10.079)" fill="none" stroke="#22988a" stroke-linecap="round" stroke-miterlimit="10" stroke-width="1.2"/>
    <path id="Path_11758" data-name="Path 11758" d="M21.572,43.95a13.32,13.32,0,0,1-1.884-.127" transform="translate(-5.353 -11.915)" fill="none" stroke="#22988a" stroke-linecap="round" stroke-miterlimit="10" stroke-width="1.2"/>
    <path id="Path_11759" data-name="Path 11759" d="M21.6,39.359q.251.013.5.013" transform="translate(-5.873 -10.701)" fill="none" stroke="#22988a" stroke-linecap="round" stroke-miterlimit="10" stroke-width="1.2"/>
    <path id="Path_11760" data-name="Path 11760" d="M12.167,34.961A10.063,10.063,0,0,0,17.66,38" transform="translate(-3.308 -9.505)" fill="none" stroke="#22988a" stroke-linecap="round" stroke-miterlimit="10" stroke-width="1.2"/>
    <path id="Path_11761" data-name="Path 11761" d="M16.264,32.476a6.541,6.541,0,0,0,4.368,1.651" transform="translate(-4.422 -8.83)" fill="none" stroke="#22988a" stroke-linecap="round" stroke-miterlimit="10" stroke-width="1.2"/>
    <path id="Path_11762" data-name="Path 11762" d="M44.784,25.177a16.718,16.718,0,0,1-1.7,7.57" transform="translate(-11.715 -6.845)" fill="none" stroke="#22988a" stroke-linecap="round" stroke-miterlimit="10" stroke-width="1.2"/>
    <path id="Path_11763" data-name="Path 11763" d="M44.368,18.619a16.8,16.8,0,0,1,.5,2.025" transform="translate(-12.063 -5.062)" fill="none" stroke="#22988a" stroke-linecap="round" stroke-miterlimit="10" stroke-width="1.2"/>
    <path id="Path_11764" data-name="Path 11764" d="M42.29,13.907q.235.4.446.818" transform="translate(-11.498 -3.781)" fill="none" stroke="#22988a" stroke-linecap="round" stroke-miterlimit="10" stroke-width="1.2"/>
    <path id="Path_11765" data-name="Path 11765" d="M40.206,21.89a13.453,13.453,0,0,1-.663,7.509" transform="translate(-10.751 -5.951)" fill="none" stroke="#22988a" stroke-linecap="round" stroke-miterlimit="10" stroke-width="1.2"/>
    <path id="Path_11766" data-name="Path 11766" d="M38.309,16.219a13.374,13.374,0,0,1,.832,1.694" transform="translate(-10.415 -4.41)" fill="none" stroke="#22988a" stroke-linecap="round" stroke-miterlimit="10" stroke-width="1.2"/>
    <path id="Path_11767" data-name="Path 11767" d="M34.539,18.955c-.076-.149-.156-.3-.24-.442" transform="translate(-9.325 -5.033)" fill="none" stroke="#22988a" stroke-linecap="round" stroke-miterlimit="10" stroke-width="1.2"/>
    <path id="Path_11768" data-name="Path 11768" d="M35.494,27.147a10.056,10.056,0,0,0-.117-6.275" transform="translate(-9.618 -5.675)" fill="none" stroke="#22988a" stroke-linecap="round" stroke-miterlimit="10" stroke-width="1.2"/>
    <path id="Path_11769" data-name="Path 11769" d="M31.056,25.464a6.542,6.542,0,0,0-.754-4.609" transform="translate(-8.238 -5.67)" fill="none" stroke="#22988a" stroke-linecap="round" stroke-miterlimit="10" stroke-width="1.2"/>
  </g>
</svg>
