<svg xmlns="http://www.w3.org/2000/svg" xmlns:xlink="http://www.w3.org/1999/xlink" width="35.184" height="26.776" viewBox="0 0 35.184 26.776">
  <defs>
    <clipPath id="clip-path">
      <rect id="Rectangle_2763" data-name="Rectangle 2763" width="35.184" height="26.776" fill="#22988a"/>
    </clipPath>
  </defs>
  <g id="s3" transform="translate(-927.268 -1649)">
    <g id="Group_2701" data-name="Group 2701" transform="translate(927.268 1649)">
      <g id="Group_2700" data-name="Group 2700" clip-path="url(#clip-path)">
        <path id="Path_11788" data-name="Path 11788" d="M248.746,57.353a.39.39,0,0,1,0,.551l-1.37,1.369a.39.39,0,0,1-.551,0l-10.05-10.05a.39.39,0,0,1,0-.551l1.369-1.369a.39.39,0,0,1,.551,0Z" transform="translate(-217.587 -43.385)" fill="#22988a"/>
        <path id="Path_11789" data-name="Path 11789" d="M155.823,91.381s.208-.3-.805.714A6.763,6.763,0,0,1,151.2,93.66a10.989,10.989,0,0,0-5.231,2.426l-3.96,3.091c-.327.27-.574.253-.8.024l-2.56-2.56c-.228-.228-.245-.475.024-.8l3.091-3.96a10.988,10.988,0,0,0,2.426-5.231,6.764,6.764,0,0,1,1.565-3.818c1.014-1.014.806-.714.806-.714Z" transform="translate(-127.311 -75.459)" fill="#22988a"/>
        <path id="Path_11790" data-name="Path 11790" d="M325.732,3.433l2.023-2.022A.826.826,0,0,0,326.586.242l-2.022,2.023Z" transform="translate(-298.406 0)" fill="#22988a"/>
        <path id="Path_11791" data-name="Path 11791" d="M291.528,32.271l-2.735,2.753-1.169-1.169,2.735-2.753Z" transform="translate(-264.443 -28.596)" fill="#22988a"/>
        <path id="Path_11792" data-name="Path 11792" d="M395.124,72.825l2.022-2.022a.826.826,0,1,0-1.169-1.169l-2.022,2.022Z" transform="translate(-362.204 -63.8)" fill="#22988a"/>
        <path id="Path_11793" data-name="Path 11793" d="M360.921,101.664l-2.735,2.753-1.169-1.169,2.735-2.753Z" transform="translate(-328.244 -92.396)" fill="#22988a"/>
        <path id="Path_11794" data-name="Path 11794" d="M12.747,48.885,11.5,50.115a6.729,6.729,0,0,1-9.505,0,6.539,6.539,0,0,1-.124-9.279,8.951,8.951,0,0,1,3.544-2.242l.091-.04a7.725,7.725,0,0,0,1.936-1.168c.04-.037.08-.075.118-.114a4.3,4.3,0,0,0,1.248-2.989,4.783,4.783,0,0,0-1.395-3.457,4.633,4.633,0,0,0-2.4-1.279L5.4,27.522a6.69,6.69,0,0,1,3.47,1.846,6.857,6.857,0,0,1,2,4.955A6.342,6.342,0,0,1,8.842,38.9a9.742,9.742,0,0,1-2.5,1.539l-.091.04a7.07,7.07,0,0,0-2.878,1.769,4.477,4.477,0,0,0,.08,6.407,4.663,4.663,0,0,0,6.587,0l1.248-1.23Z" transform="translate(0 -25.304)" fill="#22988a"/>
      </g>
    </g>
    <path id="Path_11796" data-name="Path 11796" d="M2.089,12.578,4.749,5.3l-1.841.343L4.229.93.929,7.076l2.143.079Z" transform="matrix(0.899, 0.438, -0.438, 0.899, 946.178, 1658.184)" fill="#fff"/>
  </g>
</svg>
