<svg xmlns="http://www.w3.org/2000/svg" xmlns:xlink="http://www.w3.org/1999/xlink" width="36.959" height="23.338" viewBox="0 0 36.959 23.338">
  <defs>
    <clipPath id="clip-path">
      <rect id="Rectangle_2762" data-name="Rectangle 2762" width="36.959" height="22.685" fill="#22988a" stroke="#22988a" stroke-width="1"/>
    </clipPath>
  </defs>
  <g id="s4" transform="translate(-0.671 0.265)">
    <g id="Group_2695" data-name="Group 2695" transform="translate(0.671 0.388)">
      <g id="Group_2694" data-name="Group 2694" clip-path="url(#clip-path)">
        <path id="Path_11778" data-name="Path 11778" d="M40.261,25.3l-3.428,1.193,9.446,4.756L49.6,30.238Z" transform="translate(-13.034 -8.953)" fill="#22988a" stroke="#22988a" stroke-linejoin="round" stroke-width="1.2"/>
        <path id="Path_11779" data-name="Path 11779" d="M17.631,24.392l-1-1.94L.6,23.64l1.46,1.87Z" transform="translate(-0.212 -7.945)" fill="#22988a" stroke="#22988a" stroke-linejoin="round" stroke-width="1.2"/>
      </g>
    </g>
    <path id="Path_11780" data-name="Path 11780" d="M33.939,14.9l4.434.748L45.235,7.6l-4.9-.944Z" transform="translate(-10.01 -2.356)" fill="#22988a" stroke="#22988a" stroke-linejoin="round" stroke-width="1.2"/>
    <g id="Group_2697" data-name="Group 2697" transform="translate(0 0)">
      <g id="Group_2699" data-name="Group 2699">
        <path id="Path_11781" data-name="Path 11781" d="M35.021,21.873a6.074,6.074,0,0,0-4.352-.186C29.4,22.164,29.3,23,30.4,23.557a6.161,6.161,0,0,0,4.228.176C35.91,23.279,36.1,22.448,35.021,21.873Z" transform="translate(-10.488 -7.563)" fill="none" stroke="#22988a" stroke-miterlimit="10" stroke-width="1.2"/>
        <path id="Path_11782" data-name="Path 11782" d="M34.9,2.1a5.938,5.938,0,0,1-3.588.128c-1.054-.329-1.151-.912-.236-1.3A6,6,0,0,1,34.593.8C35.651,1.123,35.8,1.7,34.9,2.1Z" transform="translate(-10.774 -0.212)" fill="none" stroke="#22988a" stroke-miterlimit="10" stroke-width="1.2"/>
        <line id="Line_93" data-name="Line 93" y2="10" transform="translate(22.193 3.039)" fill="none" stroke="#22988a" stroke-linecap="round" stroke-miterlimit="10" stroke-width="1.2"/>
      </g>
    </g>
  </g>
</svg>
