<svg xmlns="http://www.w3.org/2000/svg" xmlns:xlink="http://www.w3.org/1999/xlink" width="43" height="22" viewBox="0 0 43 22">
  <defs>
    <clipPath id="clip-path">
      <rect id="Rectangle_2726" data-name="Rectangle 2726" width="43" height="22" transform="translate(0 0)" fill="#22988a"/>
    </clipPath>
  </defs>
  <g id="s5" transform="translate(0.133 -0.027)">
    <g id="Group_86" data-name="Group 86" transform="translate(-0.133 0.027)" clip-path="url(#clip-path)">
      <path id="Path_103" data-name="Path 103" d="M385.035,513.166a3.79,3.79,0,0,0-3.706,3.405,3.078,3.078,0,0,0,3.118,3.406,3.79,3.79,0,0,0,3.706-3.405,3.078,3.078,0,0,0-3.118-3.406m-.439,5.087a1.52,1.52,0,0,1-1.54-1.681,1.871,1.871,0,0,1,1.83-1.682,1.52,1.52,0,0,1,1.54,1.682,1.872,1.872,0,0,1-1.83,1.681" transform="translate(-370.189 -498.231)" fill="#22988a"/>
      <path id="Path_104" data-name="Path 104" d="M669.472,217.959h-.417l-.218,1.71h.4c.706,0,.935-.244,1-.754l.023-.181c.066-.51-.035-.775-.791-.775" transform="translate(-649.441 -211.514)" fill="#22988a"/>
      <path id="Path_105" data-name="Path 105" d="M42.493,9.413l-3.727-4.07a2.9,2.9,0,0,0-1.873-.8H32.345l.294-3.406A1.03,1.03,0,0,0,31.6,0H8.851A1.267,1.267,0,0,0,7.616,1.134l-.018.21H4.66a.748.748,0,0,0-.732.673.608.608,0,0,0,.616.673H11.02a.608.608,0,0,1,.616.673.749.749,0,0,1-.732.673H1.964a.748.748,0,0,0-.732.673.608.608,0,0,0,.616.673H9.777a.608.608,0,0,1,.616.673.749.749,0,0,1-.732.673H3.312A.748.748,0,0,0,2.58,7.4a.608.608,0,0,0,.616.673h8.034a.608.608,0,0,1,.616.673.749.749,0,0,1-.732.673H.734A.749.749,0,0,0,0,10.089a.608.608,0,0,0,.616.673H9.986a.608.608,0,0,1,.616.673.749.749,0,0,1-.732.673h-3.2l-.425,4.919a1.029,1.029,0,0,0,1.039,1.135h2.844A4.742,4.742,0,0,1,14.759,13.9a3.851,3.851,0,0,1,3.9,4.257H32.305A4.743,4.743,0,0,1,36.938,13.9a3.851,3.851,0,0,1,3.9,4.257H41.4a1.268,1.268,0,0,0,1.236-1.135l.49-5.675a2.912,2.912,0,0,0-.638-1.938M17.628,6.26H15.409L15.244,7.6h1.877l-.109.873H15.137l-.281,2.29h-.963l.653-5.382h3.192Zm4.061.733-.035.279A1.513,1.513,0,0,1,20.528,8.71l.922,2.045H20.318l-.832-1.892h-.359l-.242,1.892h-.969L18.6,5.38h1.373c1.316,0,1.87.475,1.72,1.613m4.2-.775H23.729L23.545,7.6H25.38l-.118.866H23.43l-.19,1.416h2.245l-.12.88H22.153l.71-5.382H26Zm4.066,0H27.795L27.6,7.6h1.835l-.122.866H27.484l-.2,1.416h2.245l-.126.88H26.2l.738-5.382H30.07Zm3.09,3.43.344-3.973H36.8a1.907,1.907,0,0,1,1.1.47l3.208,3.5h-8.06Z" transform="translate(0.162 0.178)" fill="#22988a"/>
      <path id="Path_106" data-name="Path 106" d="M1156.287,513.166a3.79,3.79,0,0,0-3.706,3.405,3.078,3.078,0,0,0,3.118,3.406,3.79,3.79,0,0,0,3.706-3.405,3.078,3.078,0,0,0-3.118-3.406m-.44,5.087a1.519,1.519,0,0,1-1.539-1.681,1.871,1.871,0,0,1,1.831-1.682,1.519,1.519,0,0,1,1.54,1.682,1.873,1.873,0,0,1-1.831,1.681" transform="translate(-1119.261 -498.231)" fill="#22988a"/>
    </g>
  </g>
</svg>
