<svg id="si1" xmlns="http://www.w3.org/2000/svg" xmlns:xlink="http://www.w3.org/1999/xlink" width="11.569" height="19.729" viewBox="0 0 11.569 19.729">
  <defs>
    <clipPath id="clip-path">
      <rect id="Rectangle_2660" data-name="Rectangle 2660" width="11.569" height="19.729" fill="#239b8c"/>
    </clipPath>
  </defs>
  <g id="Group_7" data-name="Group 7" clip-path="url(#clip-path)">
    <path id="Path_4" data-name="Path 4" d="M70.147,364.052c-.692,0-1.384,0-2.076,0a.548.548,0,1,1-.006-1.089q2.076,0,4.152,0a.556.556,0,0,1,.617.556.547.547,0,0,1-.61.534c-.692,0-1.384,0-2.076,0" transform="translate(-64.376 -346.397)" fill="#239b8c"/>
    <path id="Path_5" data-name="Path 5" d="M70.15,327.034c-.692,0-1.384,0-2.076,0a.548.548,0,1,1,0-1.088q2.076,0,4.152,0a.548.548,0,1,1,0,1.089c-.692,0-1.384,0-2.076,0Z" transform="translate(-64.383 -311.068)" fill="#239b8c"/>
    <path id="Path_6" data-name="Path 6" d="M89.55,400.312h3.356a1.694,1.694,0,0,1-3.356,0" transform="translate(-85.462 -382.043)" fill="#239b8c"/>
    <path id="Path_7" data-name="Path 7" d="M5.793,14.146c-.688,0-1.375.007-2.062-.007-.1,0-.262-.089-.275-.159a10.552,10.552,0,0,0-1.508-3.464A24.837,24.837,0,0,1,.565,8.091a5.34,5.34,0,0,1,.954-6.133A5.4,5.4,0,0,1,7.574.328a5.527,5.527,0,0,1,3.95,4.851,5.194,5.194,0,0,1-.693,3.314c-.512.9-1.06,1.788-1.578,2.69a8.26,8.26,0,0,0-1.1,2.777c-.029.18-.132.187-.269.186-.7,0-1.395,0-2.092,0m-3.6-8.369A3.661,3.661,0,0,1,5.768,2.19V1.031A4.688,4.688,0,0,0,1.053,5.777Z" transform="translate(0 0)" fill="#239b8c"/>
  </g>
</svg>
