<svg id="si2" xmlns="http://www.w3.org/2000/svg" xmlns:xlink="http://www.w3.org/1999/xlink" width="18.79" height="10.175" viewBox="0 0 18.79 10.175">
  <defs>
    <clipPath id="clip-path">
      <rect id="Rectangle_2659" data-name="Rectangle 2659" width="18.79" height="10.175" fill="#239b8c"/>
    </clipPath>
  </defs>
  <g id="Group_5" data-name="Group 5" transform="translate(0 0)" clip-path="url(#clip-path)">
    <path id="Path_2" data-name="Path 2" d="M75.351,19.414l.237,1.4-3.546-2.5,3.55-2.506-.254,1.478c1.074,0,2.073.007,3.071,0,1.92-.017,1.677.262,1.688-1.7.009-1.564.122-1.437-1.422-1.436-1.246,0-2.493-.015-3.739.007-.529.009-.764-.161-.761-.726.005-1.323-.016-1.324,1.307-1.324,1.468,0,2.935-.005,4.4,0a2.042,2.042,0,0,1,2.246,2.246c0,.965.011,1.93,0,2.895a1.987,1.987,0,0,1-2.094,2.078c-1.306.014-2.613.013-3.919.025-.234,0-.469.038-.763.063" transform="translate(-63.345 -10.643)" fill="#239b8c"/>
    <path id="Path_3" data-name="Path 3" d="M6.792,1.41,6.565,0,10.1,2.484,6.56,4.989l.234-1.4c-.267-.03-.5-.075-.726-.078-1.106-.01-2.211.007-3.317-.016-.525-.011-.728.2-.706.717.024.542,0,1.085.006,1.628,0,.74.062.8.783.8,1.427,0,2.854,0,4.282,0,.785,0,.833.049.839.807.01,1.226.01,1.226-1.2,1.226-1.528,0-3.055.005-4.583,0A2,2,0,0,1,.01,6.546C0,5.561,0,4.576.013,3.591A2.017,2.017,0,0,1,2.139,1.47c1.326-.018,2.653-.013,3.98-.021.2,0,.394-.022.673-.039" transform="translate(0 0)" fill="#239b8c"/>
  </g>
</svg>
