<svg id="si3" xmlns="http://www.w3.org/2000/svg" xmlns:xlink="http://www.w3.org/1999/xlink" width="14.408" height="14.417" viewBox="0 0 14.408 14.417">
  <defs>
    <clipPath id="clip-path">
      <rect id="Rectangle_2658" data-name="Rectangle 2658" width="14.408" height="14.417" fill="#239b8c"/>
    </clipPath>
  </defs>
  <g id="Group_1" data-name="Group 1" clip-path="url(#clip-path)">
    <path id="Path_1" data-name="Path 1" d="M7.227,14.416a7.208,7.208,0,1,1,7.181-7.153,7.2,7.2,0,0,1-7.181,7.153m.615-9.974H7.835c0-.73.006-1.461,0-2.191A.619.619,0,0,0,7.2,1.615a.607.607,0,0,0-.618.612q-.015,2.616-.008,5.232a.308.308,0,0,0,.152.205c.757.429,1.52.85,2.281,1.273.24.134.476.277.721.4a.615.615,0,0,0,.75-.154.578.578,0,0,0,.059-.712,1.187,1.187,0,0,0-.36-.31q-1.033-.6-2.08-1.168a.424.424,0,0,1-.265-.417c.01-.711,0-1.422,0-2.133" transform="translate(0 0)" fill="#239b8c"/>
  </g>
</svg>
