<svg id="si4" xmlns="http://www.w3.org/2000/svg" xmlns:xlink="http://www.w3.org/1999/xlink" width="13" height="18.873" viewBox="0 0 13 18.873">
  <defs>
    <clipPath id="clip-path">
      <rect id="Rectangle_2783" data-name="Rectangle 2783" width="13" height="18.873" fill="#239b8c"/>
    </clipPath>
  </defs>
  <g id="Group_2739" data-name="Group 2739" clip-path="url(#clip-path)">
    <path id="Path_11825" data-name="Path 11825" d="M5.234,41.49c0-.595-.009-1.167,0-1.739a.457.457,0,0,0-.256-.457,3.475,3.475,0,0,1-1.56-2.015,1.089,1.089,0,0,0-.267-.448c-.769-.749-1.551-1.486-2.33-2.225A1.984,1.984,0,0,1,0,33.121a.806.806,0,0,1,.855-.907,1.96,1.96,0,0,1,1.41.58c.316.27.635.536,1.025.864,0-.229,0-.364,0-.5.006-2.481.017-4.962.017-7.444A1.109,1.109,0,0,1,4,24.62a1.156,1.156,0,0,1,1.377.242,1.545,1.545,0,0,1,.329.856c.038,1.073.015,2.149.016,3.223v.5A1.3,1.3,0,0,1,7.4,28.705c.766.268.782.926.727,1.711a1.332,1.332,0,0,1,1.7-.743c.722.26.815.878.745,1.514a3.921,3.921,0,0,1,.825-.543A1.168,1.168,0,0,1,13,31.876c-.023,1.456-.019,2.913,0,4.368a3.341,3.341,0,0,1-1.63,3.023.53.53,0,0,0-.283.523c.016.559.005,1.12.005,1.7Z" transform="translate(0 -22.617)" fill="#239b8c"/>
    <path id="Path_11826" data-name="Path 11826" d="M18.311,6.047a3.234,3.234,0,0,1-1.577-2.77A3.223,3.223,0,0,1,18.786.227,3.255,3.255,0,0,1,22.9,4.69c-.332.679-.48.8-1.28,1a3.015,3.015,0,0,1,.193-1.511,1.993,1.993,0,0,0-.5-2.5,2.062,2.062,0,0,0-2.556-.091,1.975,1.975,0,0,0-.678,2.454,5.014,5.014,0,0,1,.225,2.008" transform="translate(-15.449 0)" fill="#239b8c"/>
  </g>
</svg>
